<svg width="300" height="60" viewBox="0 0 300 60" fill="none" xmlns="http://www.w3.org/2000/svg">
  <path d="M58.48 26.427H39.756c-3.736 0-6.773 3.04-6.773 6.778v14.867a6.78 6.78 0 0 0 6.773 6.776h18.722a.42.42 0 0 0 .422-.42v-4.47a.42.42 0 0 0-.422-.417H39.111a.65.65 0 0 1-.64-.642v-5.79h15.087a.42.42 0 0 0 .42-.416V38.22a.42.42 0 0 0-.42-.418l-15.087-.001v-5.424a.65.65 0 0 1 .64-.645h19.368a.42.42 0 0 0 .422-.418v-4.469a.42.42 0 0 0-.422-.419zm-30.919.478H.418a.419.419 0 0 0-.418.418v4.63c0 .23.187.417.418.417h10.627v22.48c0 .229.188.42.418.42h5.053a.422.422 0 0 0 .417-.42V32.37H27.56a.42.42 0 0 0 .419-.416v-4.631a.42.42 0 0 0-.419-.418zM79.32 43.547l8.143 10.66s.494.641 1.272.641h5.09c.228 0 .416-.04.416-.27 0-.16-.417-.715-.417-.715L83.92 40.638l9.904-13.226s.417-.55.417-.681c0-.19-.079-.303-.417-.303h-5.09a1.59 1.59 0 0 0-1.294.643l-8.12 10.657-8.121-10.657s-.418-.643-1.294-.643h-5.09c-.339 0-.417.113-.417.303 0 .13.416.681.416.681l9.905 13.226-9.904 13.227s-.417.554-.417.713c0 .232.188.271.416.271h5.09c.777 0 1.273-.642 1.273-.642l8.142-10.66zm48.273-17.12h-4.819a.42.42 0 0 0-.418.419v10.882H106.19l-.011-10.882a.418.418 0 0 0-.417-.419h-4.82a.42.42 0 0 0-.418.419v27.583c0 .231.189.42.418.42h4.82a.42.42 0 0 0 .417-.42l.011-11.23h16.166v11.23c0 .231.188.42.418.42h4.819a.418.418 0 0 0 .417-.42V26.846a.418.418 0 0 0-.417-.419zm65.976 0h-14.102c-3.689 0-6.692 3.03-6.692 6.754V54.43c0 .231.185.42.414.42h4.773a.417.417 0 0 0 .414-.42V32.54c0-.348.291-.642.634-.642h15.016c.343 0 .635.294.635.643V54.43c0 .231.186.42.412.42h4.773a.417.417 0 0 0 .416-.42V33.18c0-3.723-3.004-6.754-6.693-6.754z" fill="#FEFEFE"/>
  <path fill-rule="evenodd" clip-rule="evenodd" d="M249.262 26.427h11.946c3.637 0 6.593 3.03 6.593 6.754v6.878c0 3.724-2.331 6.754-5.965 6.754h-13.824v7.616c0 .232-.185.42-.409.42h-4.524a.414.414 0 0 1-.409-.42V33.18c0-3.724 2.957-6.754 6.592-6.754zm12.574 15.096a.64.64 0 0 0 .624-.64v-8.526a.642.642 0 0 0-.624-.642h-13.201a.64.64 0 0 0-.623.642v9.166h13.824z" fill="#FEFEFE"/>
  <path d="m288.267 39.833 10.242-12.467s.825-.939-.663-.939h-4.336c-.756 0-1.263.642-1.263.642l-8.939 10.945h-3.843l-.001-11.168a.415.415 0 0 0-.411-.419h-4.558a.415.415 0 0 0-.411.419l.001 27.583c0 .232.184.42.412.42h4.558c.226 0 .41-.188.41-.42V43.483h5.115l8.759 10.723s.559.642 1.264.642h4.505c1.488 0 .665-.954.665-.954l-11.506-14.061z" fill="#FEFEFE"/>
  <path fill-rule="evenodd" clip-rule="evenodd" d="M143.274 26.427h15.024c3.653 0 6.623 2.995 6.623 6.675V43.44c0 3.678-2.97 6.671-6.623 6.671h-15.024c-3.652 0-6.625-2.993-6.625-6.671V33.102c0-3.68 2.973-6.675 6.625-6.675zm15.651 18.276c.34 0 .628-.289.628-.632V32.47a.64.64 0 0 0-.628-.634h-16.279a.64.64 0 0 0-.628.634v11.6a.64.64 0 0 0 .628.633h16.279z" fill="#0092C4"/>
  <path d="M164.921 59.149v-4.652c0-.242-.184-.438-.41-.438h-27.452c-.225 0-.41.196-.41.438v4.652c0 .24.185.436.41.436h27.452c.226 0 .41-.195.41-.436z" fill="#0092C4"/>
  <path fill-rule="evenodd" clip-rule="evenodd" d="m212.038 54.435 1.948-6.026h15.744l1.95 6.026s.094.413.413.413h4.756c.44 0 .304-.417.304-.417l-7.351-22.475c-.885-2.734-2.895-5.529-7.943-5.529-5.05 0-7.061 2.795-7.944 5.53l-7.351 22.474s-.136.417.304.417h4.757c.319 0 .413-.413.413-.413zm16.029-11.163h-12.418l3.078-9.464c.219-.675.936-2.061 3.132-2.061s2.911 1.386 3.129 2.061l3.079 9.464z" fill="#FEFEFE"/>
  <path d="M141.67 10.673a2.649 2.649 0 0 0-.341-.703 1.803 1.803 0 0 0-.414-.425 1.184 1.184 0 0 0-.48-.201 2.968 2.968 0 0 0-.52-.046h-1.43v4.204a.366.366 0 0 1-.057.208c-.038.058-.116.085-.235.085h-1.219c-.217 0-.325-.097-.325-.293v-9.66c0-.207.108-.31.325-.31h1.219c.119 0 .197.029.235.085a.396.396 0 0 1 .057.225v3.94h1.398c.152 0 .311-.012.479-.038.168-.025.328-.085.48-.177.151-.093.295-.225.43-.395s.252-.404.35-.703l.844-2.535c.055-.144.114-.242.179-.294.065-.051.185-.077.358-.077h1.024c.173 0 .276.034.308.1.033.068.027.163-.016.287l-.845 2.612c-.163.505-.369.925-.617 1.26-.25.334-.537.559-.861.672.411.134.731.373.958.718.227.346.417.766.569 1.26l.942 2.937c.044.124.049.22.017.286-.033.067-.136.1-.309.1h-1.122c-.173 0-.292-.025-.357-.077s-.124-.149-.178-.293l-.846-2.752zm6.298 1.206-3.439-8.037c-.032-.076-.035-.144-.008-.203.027-.06.084-.09.171-.09h1.386c.14 0 .238.019.293.057a.604.604 0 0 1 .163.22l1.141 2.967 1.189 3.162h.049l1.238-3.276 1.06-2.82a1.13 1.13 0 0 1 .187-.245c.06-.054.155-.082.286-.082h1.254c.098 0 .161.028.188.082.027.054.019.125-.025.212l-3.226 8.053c-.185.424-.365.805-.538 1.141-.174.337-.364.62-.571.848a2.126 2.126 0 0 1-.709.522c-.266.12-.589.184-.969.195a6.206 6.206 0 0 1-1.19-.13c-.152-.033-.255-.082-.309-.147-.055-.065-.071-.174-.049-.326l.081-.652c.011-.12.044-.195.098-.228.054-.033.157-.044.31-.033.293.022.532.024.717.008.184-.016.339-.051.464-.106a.725.725 0 0 0 .302-.236c.076-.103.157-.242.245-.416l.211-.44zm9.813-3.353a30.45 30.45 0 0 1-.221 2.398c-.092.662-.253 1.204-.482 1.627a2.11 2.11 0 0 1-.964.931c-.413.2-.973.303-1.681.314-.207 0-.338-.021-.392-.062-.055-.04-.087-.127-.098-.26l-.016-.671c0-.102.016-.17.049-.207.033-.035.11-.063.231-.084.329-.06.597-.14.806-.236.209-.097.376-.245.502-.443s.223-.463.288-.794c.066-.331.121-.767.165-1.306l.391-5.895c0-.204.108-.306.325-.306h5.588c.196 0 .294.102.294.306v9.53c0 .091-.02.163-.058.214-.038.05-.117.076-.237.076h-1.225c-.217 0-.326-.097-.326-.29v-8.34h-2.743l-.196 3.498z" fill="#FEFEFE"/>
  <path fill-rule="evenodd" clip-rule="evenodd" d="M164.442 3.532c-.204 0-.306.099-.306.294v9.69c0 .187.102.28.306.28h3.419a4.36 4.36 0 0 0 1.29-.186 3.053 3.053 0 0 0 1.061-.565c.305-.253.547-.57.725-.952.178-.382.267-.831.267-1.347 0-.351-.048-.715-.145-1.091a2.572 2.572 0 0 0-.519-1.015c-.25-.299-.587-.546-1.015-.743-.428-.195-.977-.294-1.649-.294h-2V3.826c0-.195-.096-.294-.29-.294h-1.144zm4.663 5.999c.239.304.359.704.359 1.2 0 .526-.158.92-.473 1.184-.316.263-.733.394-1.252.394h-1.863V9.074h1.954c.611 0 1.036.153 1.275.457z" fill="#FEFEFE"/>
  <path d="M179.541 5.047h-2.401v8.454a.393.393 0 0 1-.053.21c-.035.056-.107.085-.217.085h-1.123c-.19 0-.284-.099-.284-.295V5.047h-2.386c-.121 0-.202-.023-.242-.069-.041-.046-.06-.114-.06-.206v-.948c0-.092.019-.164.06-.215.04-.05.116-.077.227-.077h6.494c.191 0 .287.098.287.292v.948c0 .184-.101.275-.302.275z" fill="#FEFEFE"/>
  <path d="m183.308 11.879-3.439-8.037c-.032-.076-.035-.144-.008-.203.027-.06.084-.09.172-.09h1.385c.14 0 .239.019.293.057a.604.604 0 0 1 .163.22l1.141 2.967 1.189 3.162h.049l1.239-3.276 1.059-2.82c.066-.109.128-.19.187-.245.06-.054.155-.082.286-.082h1.254c.098 0 .161.028.188.082.027.054.019.125-.024.212l-3.227 8.053c-.185.424-.364.805-.538 1.141-.174.337-.364.62-.57.848a2.136 2.136 0 0 1-.709.522c-.267.12-.59.184-.97.195a6.187 6.187 0 0 1-1.19-.13c-.152-.033-.255-.082-.309-.147-.055-.065-.072-.174-.049-.326l.081-.652c.011-.12.043-.195.098-.228.054-.033.157-.044.31-.033.293.022.532.024.717.008.184-.016.339-.051.464-.106a.725.725 0 0 0 .302-.236c.076-.103.157-.242.244-.416l.212-.44z" fill="#FEFEFE"/>
  <path fill-rule="evenodd" clip-rule="evenodd" d="M191.799 13.71a.366.366 0 0 0 .056-.208V9.808h1.835c.681 0 1.242-.1 1.683-.302.441-.2.793-.456 1.053-.765a2.66 2.66 0 0 0 .543-1.028c.1-.376.151-.744.151-1.105 0-.515-.087-.966-.263-1.353a2.611 2.611 0 0 0-.726-.957 3.18 3.18 0 0 0-1.093-.573 4.582 4.582 0 0 0-1.348-.193h-3.318c-.213 0-.32.099-.32.294v9.676c0 .196.107.293.32.293h1.196c.117 0 .194-.027.231-.085zm2.992-8.277c.329.258.494.665.494 1.222 0 .474-.13.873-.39 1.197-.261.325-.711.488-1.348.488h-1.692V5.047h1.627c.543 0 .979.13 1.309.386zm4.015 8.293a.517.517 0 0 0 .157-.256l.703-2.229h3.497l.656 2.23a.757.757 0 0 0 .133.247c.047.052.132.078.257.078h1.374c.156 0 .209-.093.156-.279l-3.216-9.66a.626.626 0 0 0-.125-.24c-.052-.056-.151-.085-.297-.085h-1.359c-.145 0-.244.026-.296.078a.665.665 0 0 0-.14.248l-3.155 9.628c-.073.207-.016.31.172.31h1.218a.436.436 0 0 0 .265-.07zm2.64-8.367.64 2.23.655 2.197h-2.639l.656-2.229.625-2.198h.063z" fill="#FEFEFE"/>
  <path d="M212.042 3.842c0-.206.096-.31.29-.31h1.111c.203 0 .305.104.305.31v6.904h.031l.694-1.099 3.624-5.79a.97.97 0 0 1 .191-.224c.076-.067.185-.1.327-.1h1.006c.102 0 .172.028.213.085a.322.322 0 0 1 .061.193v9.69c0 .197-.096.295-.289.295h-1.127c-.193 0-.29-.098-.29-.295V6.49h-.03l-4.38 6.981a.768.768 0 0 1-.214.24.572.572 0 0 1-.335.085h-.898c-.194 0-.29-.092-.29-.278V3.842zm15.421.001c0-.207.109-.31.329-.31h1.232c.12 0 .199.028.238.085a.394.394 0 0 1 .057.224v9.66a.363.363 0 0 1-.057.208c-.039.057-.118.085-.238.085h-1.232c-.22 0-.329-.097-.329-.293V9.174h-4.14v4.328c0 .082-.02.152-.058.208-.038.057-.118.085-.238.085h-1.233c-.219 0-.328-.097-.328-.293v-9.66c0-.206.109-.31.328-.31h1.233c.12 0 .2.03.238.086a.396.396 0 0 1 .058.225v3.816h4.14V3.843zm10.209 0c0-.207.11-.31.329-.31h1.232c.12 0 .2.028.239.085a.402.402 0 0 1 .057.224v9.66c0 .082-.02.152-.057.208-.039.057-.119.085-.239.085h-1.232c-.219 0-.329-.097-.329-.293V9.174h-4.14v4.328a.356.356 0 0 1-.058.208c-.038.057-.118.085-.238.085h-1.232c-.219 0-.329-.097-.329-.293v-9.66c0-.206.11-.31.329-.31h1.232c.12 0 .2.03.238.086a.389.389 0 0 1 .058.225v3.816h4.14V3.843z" fill="#FEFEFE"/>
  <path fill-rule="evenodd" clip-rule="evenodd" d="M249.61 10.852c.085-.67.128-1.32.128-1.948 0-.649-.048-1.292-.144-1.93a4.748 4.748 0 0 0-.6-1.73c-.304-.513-.744-.927-1.319-1.241-.577-.314-1.339-.47-2.289-.47-.639 0-1.188.087-1.647.259a3.595 3.595 0 0 0-1.168.698c-.32.292-.576.625-.768.998a5.855 5.855 0 0 0-.448 1.152 6.74 6.74 0 0 0-.208 1.185 13.95 13.95 0 0 0-.048 1.08c0 .421.017.854.048 1.298.033.444.097.876.192 1.299.097.421.238.819.424 1.192.187.374.44.701.76.982.32.282.712.503 1.176.666.464.162 1.021.243 1.672.243.992 0 1.778-.179 2.359-.536.581-.356 1.019-.811 1.312-1.363a5.313 5.313 0 0 0 .568-1.834zm-1.832-3.493c.08.494.12 1.066.12 1.716 0 .629-.04 1.187-.12 1.675-.08.488-.216.897-.408 1.228-.192.33-.448.583-.768.756-.319.174-.725.26-1.216.26-.479 0-.874-.088-1.183-.268a1.923 1.923 0 0 1-.736-.772c-.181-.337-.307-.749-.376-1.236a11.654 11.654 0 0 1-.104-1.643c0-.63.04-1.187.12-1.675.08-.488.213-.9.4-1.236.187-.336.432-.594.735-.773.305-.179.686-.268 1.144-.268.491 0 .897.084 1.216.252.32.168.576.418.768.748.192.331.328.743.408 1.236zm11.151 4.734c.155-.361.233-.77.233-1.223 0-.196-.02-.415-.06-.658a2.677 2.677 0 0 0-.226-.712 2.398 2.398 0 0 0-.452-.642 1.844 1.844 0 0 0-.738-.45l-.015-.03a1.95 1.95 0 0 0 .595-.457 2.42 2.42 0 0 0 .558-1.153 2.95 2.95 0 0 0 .052-.511c0-.826-.254-1.486-.761-1.981-.507-.496-1.263-.744-2.268-.744h-3.451c-.201 0-.302.099-.302.295v9.674c0 .093.023.166.068.217.046.052.133.078.264.078h3.828c.392 0 .763-.067 1.115-.202a2.76 2.76 0 0 0 .927-.58 2.77 2.77 0 0 0 .633-.921zm-1.831-5.69c0-.389-.118-.712-.354-.969-.237-.256-.621-.384-1.153-.384h-1.793v2.678h1.959c.382 0 .701-.126.957-.378a1.27 1.27 0 0 0 .384-.946zm.286 4.359a1.69 1.69 0 0 0-.369-1.084c-.246-.31-.641-.464-1.183-.464h-2.034v3.065h2.034c.301 0 .552-.041.754-.124a1.153 1.153 0 0 0 .73-.813c.046-.18.068-.374.068-.58zm4.249 2.964a.517.517 0 0 0 .157-.256l.703-2.229h3.498l.655 2.23a.776.776 0 0 0 .133.247c.047.052.133.078.258.078h1.374c.156 0 .208-.093.156-.279l-3.217-9.66a.626.626 0 0 0-.124-.24c-.053-.056-.152-.085-.298-.085h-1.358c-.146 0-.245.026-.296.078a.68.68 0 0 0-.141.248l-3.154 9.628c-.074.207-.016.31.172.31h1.217a.434.434 0 0 0 .265-.07zm2.64-8.367.64 2.23.656 2.197h-2.639l.656-2.229.624-2.198h.063z" fill="#FEFEFE"/>
  <path d="M271.92 12.284h4.033V3.841c0-.206.101-.31.302-.31h1.191c.201 0 .302.104.302.31v8.395l.762.077c.138.02.219.072.246.154.027.082.04.165.04.247l-.174 3.033c-.022.175-.048.288-.08.34-.032.05-.101.076-.207.076h-.952c-.117 0-.191-.023-.223-.07-.032-.045-.053-.152-.063-.316l-.111-1.98h-6.527c-.117 0-.196-.027-.238-.085a.366.366 0 0 1-.064-.223V3.841a.37.37 0 0 1 .063-.225c.042-.056.121-.085.236-.085h1.181c.188 0 .283.104.283.31v8.442zm8.446-8.442c0-.206.097-.31.29-.31h1.112c.203 0 .305.104.305.31v6.904h.03l.694-1.099 3.625-5.79a.966.966 0 0 1 .19-.224c.076-.067.185-.1.327-.1h1.007c.101 0 .172.028.213.085.04.056.061.12.061.193v9.69c0 .197-.097.295-.29.295h-1.127c-.193 0-.289-.098-.289-.295V6.49h-.031l-4.38 6.981a.754.754 0 0 1-.213.24.572.572 0 0 1-.335.085h-.899c-.193 0-.29-.092-.29-.278V3.842z" fill="#FEFEFE"/>
  <path fill-rule="evenodd" clip-rule="evenodd" d="M293.012 2.574a2.93 2.93 0 0 0 1.468.408 2.6 2.6 0 0 0 1.429-.423c.441-.282.799-.705 1.076-1.27a4.11 4.11 0 0 0 .115-.304c.036-.106.002-.191-.1-.255l-.415-.272c-.133-.096-.261-.069-.384.08-.164.192-.313.357-.446.495a3.227 3.227 0 0 1-.392.351 1.305 1.305 0 0 1-.399.208 1.598 1.598 0 0 1-.469.064c-.379 0-.694-.09-.945-.272-.251-.18-.53-.463-.837-.846a.82.82 0 0 0-.185-.152c-.051-.026-.123-.008-.215.056l-.415.352c-.082.074-.108.16-.077.255.031.096.066.186.108.271.246.565.607.983 1.083 1.254zm-2.146.631c-.194 0-.29.107-.29.32v9.983c0 .192.096.288.29.288h.898c.142 0 .254-.03.336-.089a.781.781 0 0 0 .213-.247l4.38-7.204h.03v7.236c0 .202.096.303.29.303h1.127c.193 0 .289-.101.289-.303v-10c0-.073-.02-.14-.06-.199-.041-.058-.113-.088-.214-.088h-1.006a.474.474 0 0 0-.328.104 1.05 1.05 0 0 0-.19.232l-3.624 5.974-.694 1.134h-.031V3.525c0-.213-.102-.32-.305-.32h-1.111z" fill="#FEFEFE"/>
</svg>
